ply
format ascii 1.0
element vertex 648
property float x
property float y
property float z
end_header
0 181.114720770847 -740.566814363226
0 -545.14109284021 2950.51675178114
0 -543.667672262788 2948.94790576535
0 -541.957109791126 2946.0831089238
0 -508.25730705575 2956.39304270091
0 -507.150125390601 2956.85576792441
0 -500.42339409868 2966.2234512456
0 -488.412849477486 2965.58212350254
0 -483.120071269366 2969.62913254888
0 -481.828461962007 2969.01447413395
0 -479.638159901186 2970.20916788548
0 -478.400691952342 2969.92747161109
0 -477.163837199935 2969.64818433917
0 -476.090645380117 2970.38861170234
0 -465.659718034627 2979.92822390767
0 -464.457271453485 2979.88681613901
0 -463.270404202696 2979.94540721804
0 -462.137825454777 2980.35441139709
0 -456.273343387961 2981.11450720489
0 -451.551954998333 2981.54030311741
0 -446.045878685948 2984.73298122922
0 -444.84945195866 2984.74300703593
0 -437.675737576739 2984.83736279062
0 -434.156380232781 2985.34985549721
0 -433.834262820573 2991.39043659196
0 -431.982499934319 2986.88800496732
0 -431.374940896 2990.98734384911
0 -430.390273345143 2992.48754025584
0 -429.063284229392 2991.6093232477
0 -427.304947875876 2987.71020344437
0 -426.650726708783 2991.53082124682
0 -425.630821786789 2992.80171620971
0 -423.646664315797 2987.28052323913
0 -423.10066657922 2991.89773830367
0 -422.013262387093 2992.70185885865
0 -420.778229111294 2992.46067178427
0 -417.604055722822 2995.53719402881
0 -416.298455023158 2994.79375548238
0 -415.199588294155 2995.53753363134
0 -413.90906938862 2994.89890464881
0 -410.482045970207 2996.20532044326
0 -409.271057703921 2996.14336650286
0 -408.136381687184 2996.64135141823
0 -406.94468826707 2996.72240634428
0 -405.633085874205 2995.91832004748
0 -403.393810282108 2997.14829039528
0 -399.907966065029 2998.06941459479
0 -398.844285440796 2999.1190869579
0 -397.730313418157 2999.79580211807
0 -396.886658826575 3002.52162848055
0 -395.163436015431 2998.58969506174
0 -394.010399492054 2998.97365894652
0 -390.406202992261 2999.0252263023
0 -389.989345856262 3005.08796452036
0 -388.951854993063 3006.39114970484
0 -387.774191340527 3006.61561281385
0 -385.623567928783 3008.66587240461
0 -378.426386658824 3009.04736308591
0 -377.362504144562 3010.19442201976
0 -373.810184029978 3010.77513338785
0 -372.606423613852 3010.81240486148
0 -371.482411798771 3011.49641684265
0 -370.194608274922 3010.85274986811
0 -367.801864604789 3011.04975739961
0 -366.630135573844 3011.35164135058
0 -365.407309387913 3011.23444275734
0 -364.221185110778 3011.41992166868
0 -363.709752068052 3017.20362840162
0 -362.533114009883 3017.48924411487
0 -360.802021026307 3013.14638506194
0 -359.567916132537 3012.93874351486
0 -358.323222400178 3012.64067385258
0 -357.938892207902 3019.59867552781
0 -356.904792621337 3021.10382973342
0 -355.566710035168 3020.03733924437
0 -353.804952702512 3015.35272485163
0 -353.005049388838 3018.86162571184
0 -352.000539551386 3020.63889706697
0 -350.809089992659 3020.81871418636
0 -349.604332371366 3020.88478531199
0 -348.626775975528 3022.92136417553
0 -347.481960987564 3023.516813719
0 -346.362383297801 3024.33680156624
0 -345.156249999999 3024.40412025392
0 -343.907647482429 3024.09846761849
0 -342.778076422701 3024.84104159914
0 -341.551318723739 3024.72822365177
0 -340.428058652818 3025.53442997456
0 -339.005716123721 3023.67881526162
0 -337.749810286574 3023.29969225836
0 -336.606749466768 3023.93158690436
0 -335.588247858269 3025.69109073474
0 -334.372247625223 3025.6762440282
0 -333.08776848145 3025.03937672606
0 -331.598886238421 3022.53470875897
0 -330.700897854545 3025.41744074804
0 -329.577454890146 3026.2512475045
0 -328.359349796088 3026.21879940621
0 -327.09443986256 3025.7531470648
0 -325.959477128493 3026.49056677174
0 -324.891261085874 3027.85555524206
0 -324.158057971351 3032.36470082324
0 -323.040517715029 3033.29896830644
0 -321.851988276299 3033.57120552524
0 -320.563183883721 3032.89679372463
0 -319.440440149285 3033.79435428748
0 -318.099331984993 3032.6169945273
0 -316.516678488163 3029.11896002232
0 -315.745039750002 3033.38542754994
0 -314.794768054202 3035.96214122951
0 -313.551590225081 3035.72304066227
0 -312.310635473998 3035.50368188248
0 -311.037163546529 3034.9653165402
0 -309.847181734508 3035.24058106607
0 -308.660176044879 3035.54728754318
0 -307.399108089762 3035.12516620819
0 -306.310390962681 3036.4081735039
0 -304.941066957452 3034.90870643853
0 -303.832175523189 3035.99954757422
0 -302.611003176841 3035.97270484692
0 -301.431450809017 3036.36488945643
0 -300.195452673271 3036.18936317122
0 -299.012259180103 3036.54865118705
0 -297.823874499476 3036.85794633796
0 -296.707201403423 3037.90401880017
0 -295.530595770642 3038.34255911403
0 -294.464779005525 3039.92847038727
0 -293.208187964813 3039.5499121095
0 -292.01749293112 3039.85415722643
0 -290.858592998925 3040.49332569478
0 -289.542185100101 3039.48443180953
0 -288.850563763239 3045.05348075509
0 -287.233888046765 3040.8765257418
0 -286.443964882496 3045.45390380415
0 -285.218335368614 3045.41825997349
0 -284.008401539065 3045.55062125766
0 -282.780378118006 3045.48930543455
0 -281.17145676753 3041.30745258311
0 -279.982826754187 3041.65506017825
0 -279.387438041967 3048.47874310507
0 -278.092955138743 3047.70087921979
0 -276.935345554873 3048.42280345584
0 -275.84355831817 3049.87890309501
0 -274.673792520823 3050.48196627164
0 -273.449579792979 3050.48304364106
0 -272.140946109625 3049.53813221528
0 -270.9585139231 3050.00525193947
0 -269.768287564325 3050.38847933352
0 -268.522043750661 3050.13889929163
0 -267.227862066606 3049.34001363924
0 -266.082262615155 3050.23705095951
0 -264.93037105319 3051.06991766994
0 -263.776747738275 3051.89048304675
0 -262.69854894948 3053.59543584039
0 -261.764620066886 3057.0012181045
0 -260.566282276961 3057.33665360067
0 -258.87000182599 3051.80504307535
0 -257.670046731667 3052.09980840133
0 -256.478705377118 3052.49990678076
0 -255.441856409163 3054.75137320238
0 -254.668810390727 3060.19450990406
0 -253.015038332659 3055.05598621666
0 -251.77530418176 3054.89110461307
0 -250.916300801131 3059.36677508611
0 -249.702967323402 3059.54495121492
0 -248.513672258441 3060.02088035662
0 -246.954136252673 3055.92001126883
0 -246.365011087385 3063.84643584909
0 -245.110213992838 3063.53242164926
0 -243.717211973192 3061.4791656113
0 -242.552724170981 3062.29015171861
0 -240.851074956106 3056.29305893822
0 -239.993872549019 3061.0050758859
0 -238.8179953835 3061.68012783834
0 -237.705406788333 3063.17772718621
0 -236.552878150202 3064.17353718747
0 -228.462482079717 3006.26245539814
0 -227.244048346825 3006.10540750809
0 -226.091734640575 3006.82602270475
0 -224.935845691041 3007.50656907905
0 -220.697786056587 3066.01240218086
0 -219.970856845857 3073.0480051795
0 -218.319924804643 3067.18161274596
0 -217.117922215517 3067.59147341968
0 -215.919815979328 3068.06137316803
0 -214.700273951877 3068.23032944782
0 -213.852752976004 3073.74836797755
0 -212.618204147867 3073.73533440978
0 -211.433447823838 3074.44617972995
0 -210.232751154734 3074.93222211065
0 -208.987285170025 3074.76532748237
0 -207.318757266184 3068.33509804905
0 -206.052871958194 3067.8227741956
0 -204.987237015922 3070.30364542869
0 -204.122439379361 3075.8408626497
0 -202.982602606444 3077.27578912977
0 -201.768557663889 3077.5963795687
0 -200.591376295584 3078.48666664317
0 -199.375375268131 3078.78852940068
0 -198.103805687331 3078.23070672089
0 -196.744350379977 3076.2917029168
0 -195.654292863418 3078.56711001394
0 -194.384857849298 3078.03104511325
0 -193.15017893924 3078.04199637881
0 -191.91492842626 3078.04392093054
0 -190.642440269925 3077.44476192406
0 -189.511548521459 3079.13841329243
0 -188.307191076831 3079.65281031272
0 -187.106624061291 3080.23640459221
0 -185.820957622764 3079.41749777145
0 -184.586265836759 3079.438030757
0 -183.305774409747 3078.68961831584
0 -182.139815729507 3079.86772303122
0 -180.957686694493 3080.78662888918
0 -180.080767219246 3086.95009051942
0 -178.508819525557 3081.20221611459
0 -177.642837884286 3087.64468126218
0 -176.402868783602 3087.63164900524
0 -175.129770102245 3087.03445307187
0 -173.58275249138 3081.56594108084
0 -172.305122990233 3080.83563381548
0 -171.251395512956 3084.12710009662
0 -170.096704797533 3085.63497346691
0 -169.078491745592 3089.6588915889
0 -167.983902422128 3092.33629446067
0 -166.699541613525 3091.53413851957
0 -165.358197153803 3089.65523382206
0 -163.817425904296 3083.99356794037
0 -162.577428962653 3083.95111934144
0 -161.760631463515 3091.9973272858
0 -160.609711798577 3093.73194315069
0 -159.356091924155 3093.49992080088
0 -158.123132154797 3093.66846816688
0 -156.909461245904 3094.22005556177
0 -155.677352430158 3094.41395163604
0 -154.387269244853 3093.44933696674
0 -153.196702103811 3094.47924495364
0 -151.87719382949 3092.90016917088
0 -150.902090854312 3098.36650002368
0 -149.370742709711 3092.40778245257
0 -148.174272302482 3093.34024204085
0 -146.916511711067 3092.99813172262
0 -145.762920557005 3094.86193316912
0 -144.57916311791 3096.1117721058
0 -143.573339217348 3101.2266986106
0 -142.043035518396 3095.00309453212
0 -140.79611971736 3094.89894731702
0 -139.594807354305 3095.8042969179
0 -138.334726602349 3095.41089233919
0 -137.372795130173 3101.74227442056
0 -136.124105253139 3101.65552376291
0 -134.887000144398 3101.83357273795
0 -133.53565699625 3099.36347323807
0 -132.552163173444 3105.46498678529
0 -131.345071810489 3106.39411013106
0 -130.047629747298 3105.18371230537
0 -128.830595994679 3105.88839996427
0 -127.579894946167 3105.78726579653
0 -126.258429258573 3103.94445394907
0 -124.818995353688 3099.13587677998
0 -115.190934423985 3107.84043786972
0 -113.977464940337 3108.76399459678
0 -112.769393529737 3109.85685869484
0 -111.485425706907 3108.85775488535
0 -110.237879678434 3108.86317992774
0 -108.987623116002 3108.79141320575
0 -107.750233179129 3109.08924551344
0 -106.494295545092 3108.85260013962
0 -105.311910674638 3110.78300098517
0 -104.102836014952 3111.96188026578
0 -102.8343841644 3111.37286512036
0 -101.5479156291 3110.21755252484
0 -100.49480179019 3116.26963984912
0 -99.2442402527555 3116.27440056505
0 -98.0122673656475 3116.87041711794
0 -96.7564692589554 3116.71438782864
0 -95.3434415105312 3111.42326328797
0 -94.0701498431597 3110.61234260139
0 -92.8578799403697 3111.82455081204
0 -91.6134766497203 3111.97828667792
0 -90.5377416033211 3117.94488075138
0 -89.3298074017724 3119.46223221164
0 -88.0736139687375 3119.31351802177
0 -86.8231724829755 3119.36716994727
0 -85.5736064690446 3119.45430577021
0 -84.3334410746689 3119.8918024073
0 -83.0859420738335 3120.06709289417
0 -81.8419187145555 3120.38026355442
0 -80.5843185966477 3120.17748344891
0 -79.3500530557812 3120.88606461685
0 -78.1247044805475 3121.9737094931
0 -76.8845244883773 3122.49446630567
0 -75.6405278318553 3122.87490720857
0 -74.4140835847092 3124.00504252182
0 -73.1232342387199 3122.42376223458
0 -71.8521207618531 3121.64476994246
0 -70.6234792737262 3122.71608778957
0 -69.4020032277278 3124.14867049238
0 -68.194243827295 3126.26278916539
0 -66.9189574947009 3125.30246593836
0 -65.6095718585299 3122.6825004273
0 -64.3343373493974 3121.61756547378
0 -63.1373259860787 3124.38123959146
0 -62.0493659420288 3132.76272491773
0 -60.8062711864405 3133.49643822156
0 -59.4367007045027 3127.60589049114
0 -58.1726174892 3127.13174764888
0 -56.930704659849 3127.85476730782
0 -55.7684594107912 3133.08613692245
0 -54.4316705576683 3128.52675468443
0 -53.2775334987161 3134.49807816138
0 -51.9006798038136 3127.338160234
0 -50.7629471187232 3134.58896562718
0 -49.517734186743 3135.40278120357
0 -48.2651260293376 3135.77857149585
0 -46.977894860706 3133.86480587183
0 -45.7086959312671 3133.08175527917
0 -44.4662643215674 3134.14105822269
0 -43.2163470341662 3134.71906086698
0 -41.9619356248178 3134.99596837177
0 -40.7256028236305 3136.68240818878
0 -39.4817128785113 3137.87581909423
0 -38.1904751381464 3135.26083888458
0 -36.9359516328606 3135.58442817639
0 -35.7198994781828 3139.31197417846
0 -34.4712944989186 3140.34652796763
0 -33.1932165621188 3138.67271202018
0 -31.9250598047799 3137.84196989268
0 -30.6678361438782 3138.06171464188
0 -29.4228928396414 3139.61067373687
0 -28.1473344654793 3137.88525195683
0 -26.8836409386383 3137.38285318583
0 -25.6350425942485 3138.6792883974
0 -24.380199052284 3139.30556197333
0 -23.1287584554809 3140.4621519301
0 -21.8730365740626 3141.13724079092
0 -20.6149519880891 3141.53485422355
0 -19.3453769622943 3140.11915909707
0 -18.0876725247679 3140.56724784943
0 -16.8369479125413 3142.38515456128
0 -15.5827616060857 3143.79906743915
0 -14.3208345199529 3143.76284322329
0 -13.0536948061618 3142.46476381061
0 -11.7876802195812 3141.18884499794
0 -10.5279065511771 3141.46957264322
0 -9.26544634276856 3140.9159720966
0 -8.02270101822006 3147.92367694263
0 -6.74895398071916 3143.11301196061
0 -5.4894231035222 3144.23328321691
0 -4.2259608572369 3143.09838016953
0 -2.97172458522771 3150.77946772968
0 -1.70731413049462 3151.06221486478
0 -0.442340464706646 3148.95125020234
0 0.822117620702449 3151.35922745028
0 2.08682985467754 3151.23222324236
0 3.3524453616451 3152.05035041841
0 4.6189177641501 3153.00513008801
0 5.88607042198863 3153.91375081274
0 7.15352636682594 3154.63448245401
0 8.41501333908575 3152.90202300447
0 9.67565070694098 3151.34577917453
0 10.950540914665 3154.2548279286
0 12.2128124747649 3153.30287701669
0 13.4783031920525 3153.28282612457
0 14.7438079883616 3153.26922853654
0 16.0102486358252 3153.44210972222
0 17.2844495367378 3155.0061733354
0 18.5912684449831 3161.90421037887
0 19.8660084626235 3162.81351566811
0 21.09000945029 3156.02073786293
0 22.3423730999672 3154.00154645181
0 23.6174384393389 3155.23178030939
0 24.8872183248828 3155.66661091848
0 26.1677894583822 3157.36138097698
0 27.4876355800973 3163.41955948074
0 28.6990377472871 3157.01351346167
0 30.0263851531426 3163.36436285703
0 31.3001359171597 3163.78244223657
0 32.5764128710173 3164.41331230628
0 33.8379957246057 3163.62303884177
0 35.1205912378772 3164.78341883053
0 36.3116967012135 3157.90621285004
0 44.9856267647989 2826.8834012845
0 46.1155019883371 2826.59575443781
0 47.2503467456529 2826.61920855738
0 48.4038584643682 2827.73207849335
0 49.53557844618 2827.55005942104
0 50.7058428876525 2829.52708156684
0 51.6945913401664 2821.51027610883
0 52.9392125163492 2827.50343004823
0 54.0597154093983 2826.7549532928
0 55.1020446380576 2822.03360715398
0 56.223034433964 2821.44988247794
0 57.439137463744 2825.56805378395
0 58.5549480613795 2824.68865712989
0 59.630185292832 2821.9225829703
0 60.8558193084161 2826.24429825705
0 61.9824103206446 2825.89230076116
0 63.1286794234724 2826.43399259954
0 64.2671463831002 2826.6134045007
0 65.3907401305441 2826.14378200363
0 66.5157961557345 2825.75229501806
0 67.6316904362417 2824.99124598774
0 68.7825752515218 2825.6927577432
0 69.9206343497628 2825.85315829453
0 70.9533536125497 2821.81906683543
0 72.1509997359129 2824.36783464784
0 73.1964965998505 2820.97396134061
0 74.2734889184703 2818.87881825301
0 75.4130544539633 2819.1857359395
0 76.542607875714 2819.11482716727
0 77.6555528432573 2818.44319427737
0 78.7766625234891 2818.08292415249
0 79.8985389322926 2817.75989276382
0 82.1286233807346 2816.6717399515
0 85.4400999737897 2814.03909834457
0 89.7353725161916 2738.32374716821
0 95.8106257855988 2723.57330043902
0 96.8831542748859 2722.99498646172
0 97.757833997234 2716.93086977609
0 99.8080528753542 2713.3787882905
0 100.881170737105 2712.95132423303
0 101.912122229747 2711.41113670824
0 110.925372387899 2692.4599590458
0 111.941583287324 2690.91172196798
0 112.991853316591 2690.20398182877
0 114.051307802845 2689.72624093295
0 49.1956617589883 1097.85602907705
0 130.41876275241 2671.19303923638
0 131.413094374359 2669.61356810528
0 132.468795499771 2669.29626309892
0 133.468907407295 2667.8728918028
0 134.516556121137 2667.41481436771
0 135.595691644618 2667.58341286813
0 136.638388129581 2667.03811795587
0 137.709371213141 2667.04913330328
0 138.749556162224 2666.46810480944
0 139.800681561692 2666.10461339746
0 140.8765154432 2666.21427423338
0 141.909322531275 2665.51409993354
0 142.599797479578 2658.44241477459
0 143.685361359484 2658.78658302765
0 144.704691286461 2657.90910388182
0 145.817617063326 2658.75103809341
0 146.857988524073 2658.26743811059
0 178.254299730495 2633.48579810401
0 179.409203205448 2634.92443650658
0 180.480904335321 2635.13140917535
0 181.5801599216 2635.73593837489
0 182.628490529622 2635.59854206613
0 183.662310215468 2635.25452014866
0 184.607145678924 2633.64496986691
0 185.671183698795 2633.74463392673
0 186.731286901581 2633.78767021662
0 187.808603031922 2634.07163843969
0 188.869276153736 2634.12031105678
0 189.937518995512 2634.27342745422
0 190.948028442728 2633.62856752177
0 192.013252955066 2633.7413043905
0 193.147600393641 2634.79573744627
0 194.299951277573 2636.08294160998
0 194.904726864042 2629.96743878674
0 200.926241474136 2625.89382883373
0 202.011092778703 2626.29620500192
0 203.073155526734 2626.39967336998
0 204.151449269315 2626.71090892208
0 205.153466713105 2626.04258087292
0 206.155674512543 2625.38350886835
0 207.267379783142 2626.11849436892
0 208.251149379511 2625.23327367038
0 209.257106236336 2624.63525202003
0 210.332362845517 2624.90806885972
0 226.057570721485 2624.00993585363
0 226.733496976346 2619.65159596188
0 227.755067445536 2619.30858863635
0 228.819817606349 2619.46304183912
0 230.246177365811 2623.73675172287
0 231.306710250359 2623.821799915
0 232.28522203223 2622.97988957401
0 232.92041356805 2618.28627197331
0 233.942366016174 2617.96291479124
0 235.337940096147 2621.8048167478
0 236.0928757636 2618.50719162356
0 237.425894594723 2621.62190379
0 237.994369334863 2616.30439425212
0 239.14588284149 2617.4148707881
0 240.168186076679 2617.10763240461
0 241.199902050594 2616.90519350733
0 242.228096950658 2616.66647362414
0 243.26075892649 2616.4778620071
0 244.236678451568 2615.68318145336
0 245.346638741504 2616.32468559374
0 246.447644522998 2616.86563993822
0 247.472582478909 2616.5977164472
0 248.496626737908 2616.32264787668
0 249.479779744658 2615.62117800209
0 250.405624365716 2614.32726604991
0 251.347698593266 2613.21288849102
0 251.973030069531 2608.8283441015
0 253.02031700432 2608.830767902
0 254.072661697683 2608.88510612385
0 255.12532585492 2608.94226518663
0 256.488287102193 2612.15912223667
0 257.147014185071 2608.20683833175
0 258.064261910842 2606.89811048996
0 259.014207939247 2605.92892780047
0 260.084152518711 2606.16998464268
0 260.933474386485 2604.20721860022
0 262.038632788079 2604.80326507177
0 263.29465686928 2497.70965432957
0 264.179109448736 2496.5944912929
0 265.058133388792 2495.43664682647
0 265.995941070355 2494.8388660472
0 266.523750383695 2490.4145186229
0 267.370838677906 2488.99544806275
0 268.273124622238 2488.09887251907
0 269.31715520273 2488.51868215929
0 270.235878750006 2487.78181750862
0 271.263156580522 2488.04604600033
0 272.208055393936 2487.55552100428
0 273.108406033845 2486.6629681593
0 276.267267433382 2479.18574459801
0 277.281406508447 2479.35670205636
0 278.091231491806 2477.7060620844
0 279.07315427879 2477.59505927542
0 279.494436783604 2472.525185274
0 280.433794592505 2472.05808209279
0 284.011863675582 2468.66322375194
0 284.91776755504 2467.92789133647
0 288.83791763211 2467.57031081589
0 289.646279719572 2466.02081476308
0 290.211270231968 2462.41688583619
0 292.003710103679 2460.86504758734
0 292.996633833672 2460.90920050149
0 294.070219591813 2461.628269377
0 299.044976947591 2453.80777529573
0 300.023534598774 2453.7564403067
0 300.971148453261 2453.45319393379
0 302.259979705783 2455.92438677046
0 303.164280588228 2455.26528210479
0 304.194099666975 2455.62370091099
0 304.78509947355 2452.44885185905
0 305.635395580522 2451.37415042342
0 306.5449430182 2450.78005118567
0 307.504441696827 2450.58782759433
0 308.411966166147 2449.98395346442
0 309.2160855749 2448.56509220214
0 310.161908275627 2448.27376087281
0 311.138678471391 2448.22778328386
0 312.181107596833 2448.69711299454
0 313.098634600063 2448.1868598932
0 313.592225235643 2444.37531822676
0 314.367520009026 2442.77651780472
0 315.31188454265 2442.49732203166
0 316.24687523914 2442.14746948899
0 317.255723301223 2442.3683640158
0 318.127617452906 2441.53681634864
0 319.095806853229 2441.44714424916
0 319.875937716273 2439.92356363264
0 320.351760641035 2436.09519213046
0 321.210031791422 2435.18957287195
0 322.617013578096 2438.43676865654
0 74.9296479547256 564.628085495913
0 324.053787268332 2434.52596950127
0 324.92658461376 2433.7447605329
0 325.766467452677 2432.72243909434
0 326.708979482979 2432.47034010068
0 327.67277905839 2432.37776478338
0 328.517727779184 2431.4061074826
0 329.345093751353 2430.31045859307
0 330.289317944263 2430.08105675253
0 331.263519127196 2430.07291002236
0 332.127024062606 2429.2551527384
0 332.682370896448 2426.19483896425
0 333.571198971392 2425.57731099092
0 334.485439018131 2425.14762348771
0 335.343329891885 2424.31306177083
0 336.190164978399 2423.40363411453
0 336.980812873485 2422.09560029891
0 337.241577232042 2416.99743652443
0 338.072118719808 2416.00037620509
0 339.017852565148 2415.82987596293
0 339.806249584444 2414.54236866761
0 340.704661850858 2414.04169022639
0 341.504218706859 2412.84540364499
0 342.487380907854 2412.94944955723
0 343.285411301909 2411.75226487941
0 345.220987354889 2405.00660090131
0 345.61799625152 2401.05895964785
0 346.859561549044 2402.9842145851
0 347.249756606007 2399.01699852339
0 348.085734827364 2398.14295315233
0 348.986836132546 2397.72115757827
0 349.88608778828 2397.28900868453
0 350.57312521248 2395.40920463854
0 351.05870325028 2392.16690795975
0 352.755431483014 2390.6524904775
0 353.683079646945 2390.43730072327
0 354.511233473508 2389.55264218857
0 355.290991490576 2388.34742948873
0 355.544990295691 2383.62393835696
0 356.768311284292 2385.40683261464
0 357.224438898137 2382.06434120778
0 358.615936072193 2384.96032933274
0 359.059616958246 2381.55426622691
0 359.880760844793 2380.66326153088
0 360.616164956895 2379.21129638053
0 366.154150048912 2371.78618907868
0 367.141431208416 2372.01468077989
0 367.960021658068 2371.15493821717
0 368.816588990801 2370.54372517038
0 369.731167017644 2370.30755788518
0 370.46681525004 2368.92844666569
0 371.350632019254 2368.50142578237
0 371.702207751197 2364.69058097147
0 372.631605079982 2364.56576348928
0 373.495905028418 2364.02954852065
0 374.45817668586 2364.11458826416
0 375.136530705178 2362.41123518386
0 375.991858181215 2361.82814617766
0 376.383206667094 2358.34079165119
0 377.767879922483 2361.07929174999
0 378.178928661886 2357.73408310356
0 379.51390110796 2360.15134386623
0 380.421233618542 2359.9037478986
0 380.752727074484 2356.09409540941
0 381.721663561372 2356.23803802875
0 382.50831811165 2355.25888537616
0 383.525825991619 2355.70251374978
0 384.362188607126 2355.03406110148
0 385.261233951498 2354.75201058529
0 386.138500727998 2354.33855360288
0 386.971381854251 2353.65715053263
0 388.027792573428 2354.33531849379
0 391.709849874222 2353.74892358585
0 391.999181744084 2349.82049506685
0 393.314130132166 2352.04417750004
0 395.416479980611 2347.71216311269
0 396.345492508867 2347.63373702618
0 454.665449050967 2313.57458820311
0 455.410395012647 2312.64220962652
0 467.263490469927 2297.89993897367
0 491.367553297899 2260.29455790545
0 -240.84700993903 -1004.08769973987
0 265.076282330982 920.312866134988
0 -447.0153300595 -1536.99138202309
0 352.008760983969 1139.5608240592
0 1521.82607323232 4168.38676621285
